HIERARCHY
ROOT Hips
{
    OFFSET 0.000000 0.000000 0.000000
    CHANNELS 6 Xposition Yposition Zposition Zrotation Xrotation Yrotation
    JOINT Spine
    {
        OFFSET -0.000000 7.236184 0.000000
        CHANNELS 3 Zrotation Xrotation Yrotation
        JOINT Spine1
        {
            OFFSET -0.000000 20.420147 0.000000
            CHANNELS 3 Zrotation Xrotation Yrotation
            JOINT Neck
            {
                OFFSET -0.000000 20.336288 1.848754
                CHANNELS 3 Zrotation Xrotation Yrotation
                JOINT Head
                {
                    OFFSET -0.000000 12.354461 -1.764923
                    CHANNELS 3 Zrotation Xrotation Yrotation
                    End Site
                    {
                        OFFSET -0.000000 22.061537 0.000000
                    }
                }
            }
            JOINT LeftShoulder
            {
                OFFSET 3.573296 18.396038 -0.314103
                CHANNELS 3 Zrotation Xrotation Yrotation
                JOINT LeftArm
                {
                    OFFSET 10.880760 0.000000 0.000000
                    CHANNELS 3 Zrotation Xrotation Yrotation
                    JOINT LeftForeArm
                    {
                        OFFSET 27.185530 0.000000 0.000000
                        CHANNELS 3 Zrotation Xrotation Yrotation
                        JOINT LeftHand
                        {
                            OFFSET 27.825975 0.000000 0.000000
                            CHANNELS 3 Zrotation Xrotation Yrotation
                            End Site
                            {
                                OFFSET 13.236923 0.000000 0.000000
                            }
                        }
                    }
                }
            }
            JOINT RightShoulder
            {
                OFFSET -3.474926 18.396038 -0.314103
                CHANNELS 3 Zrotation Xrotation Yrotation
                JOINT RightArm
                {
                    OFFSET -10.880760 0.000000 0.000000
                    CHANNELS 3 Zrotation Xrotation Yrotation
                    JOINT RightForeArm
                    {
                        OFFSET -27.185530 0.000000 0.000000
                        CHANNELS 3 Zrotation Xrotation Yrotation
                        JOINT RightHand
                        {
                            OFFSET -27.825975 0.000000 0.000000
                            CHANNELS 3 Zrotation Xrotation Yrotation
                            End Site
                            {
                                OFFSET -13.236923 0.000000 0.000000
                            }
                        }
                    }
                }
            }
        }
    }
    JOINT LeftUpLeg
    {
        OFFSET 8.824615 0.000000 0.000000
        CHANNELS 3 Zrotation Xrotation Yrotation
        JOINT LeftLeg
        {
            OFFSET -0.000000 -35.111282 0.000000
            CHANNELS 3 Zrotation Xrotation Yrotation
            JOINT LeftFoot
            {
                OFFSET -0.000000 -42.324711 0.000000
                CHANNELS 3 Zrotation Xrotation Yrotation
                JOINT LeftToeBase
                {
                    OFFSET -0.000000 -5.735999 13.236923
                    CHANNELS 3 Zrotation Xrotation Yrotation
                    End Site
                    {
                        OFFSET -0.000000 0.000000 3.529846
                    }
                }
            }
        }
    }
    JOINT RightUpLeg
    {
        OFFSET -8.824615 0.000000 0.000000
        CHANNELS 3 Zrotation Xrotation Yrotation
        JOINT RightLeg
        {
            OFFSET -0.000000 -35.111282 0.000000
            CHANNELS 3 Zrotation Xrotation Yrotation
            JOINT RightFoot
            {
                OFFSET -0.000000 -42.324711 0.000000
                CHANNELS 3 Zrotation Xrotation Yrotation
                JOINT RightToeBase
                {
                    OFFSET -0.000000 -5.735999 13.236923
                    CHANNELS 3 Zrotation Xrotation Yrotation
                    End Site
                    {
                        OFFSET -0.000000 0.000000 3.529846
                    }
                }
            }
        }
    }
}
MOTION
Frames:    8
Frame Time:    0.008333
-8.434467    82.473396    105.222679    -1.970340    -6.849893    -176.764221    -2.018666    -13.265020    0.698211    -0.254843    10.326065    0.955949    1.565717    3.223104    -1.669559    5.230387    -8.629375    -0.794588    -2.363208    20.104101    -3.166590    -37.299961    43.904167    -44.732967    -1.107537    -1.106030    -20.504160    5.611873    -1.295948    0.212462    9.501729    20.634699    -4.383200    32.321194    44.846954    44.605434    1.738213    -12.770302    20.811733    -8.388187    -12.875956    -2.875008    -2.589803    -6.559757    -6.982333    -1.638020    11.251774    2.693482    -0.512409    -11.212863    -6.679509    -0.432421    1.978416    0.477649    -1.998879    -1.538268    4.708341    3.520776    1.992028    1.211959    -6.009107    -7.009084    -11.640120    -1.090792    0.087948    1.179629    
-8.440652    82.472588    105.175491    -1.960633    -6.893204    -176.757385    -2.008293    -13.244398    0.700417    -0.257332    10.259069    0.956751    1.520184    3.197028    -1.680485    5.261417    -8.613701    -0.794867    -2.368913    20.073997    -3.146264    -37.361553    43.785400    -44.640457    -0.985807    -0.727967    -20.801512    4.614182    -0.900662    0.206632    9.492103    20.639809    -4.343840    32.056011    45.100822    44.785889    1.774497    -12.782293    21.338049    -8.027161    -12.927270    -2.645064    -2.582811    -6.557715    -6.995241    -1.643893    11.225847    2.731445    -0.511154    -11.214301    -6.706380    -0.424276    1.994683    0.468638    -1.988530    -1.551664    4.703403    3.513462    2.007157    1.283490    -6.014647    -7.028033    -11.714379    -1.083461    0.069979    1.171730    
-8.446760    82.471802    105.128273    -1.950809    -6.935990    -176.750519    -1.998312    -13.224067    0.702773    -0.258919    10.192867    0.957565    1.474836    3.171299    -1.691687    5.292099    -8.598788    -0.795419    -2.373142    20.043205    -3.127332    -37.414215    43.672680    -44.556965    -0.858822    -0.357041    -21.100216    3.626467    -0.510322    0.216286    9.481472    20.644484    -4.304377    31.789295    45.351112    44.970444    1.802830    -12.787643    21.861242    -7.670591    -12.968902    -2.420268    -2.575482    -6.555078    -7.007671    -1.649933    11.199749    2.768846    -0.509695    -11.215673    -6.732943    -0.416078    2.010604    0.459571    -1.978143    -1.564061    4.702267    3.506448    2.021245    1.353289    -6.019983    -7.046328    -11.790565    -1.075955    0.051996    1.163641    
-8.452664    82.471100    105.081604    -1.940885    -6.977470    -176.743637    -1.988962    -13.204445    0.705304    -0.259293    10.128566    0.958546    1.431125    3.146970    -1.703029    5.320918    -8.585858    -0.796650    -2.374775    20.011417    -3.111136    -37.451283    43.571953    -44.489449    -0.728110    -0.000901    -21.395630    2.676321    -0.132973    0.242854    9.470026    20.647650    -4.265070    31.524187    45.593430    45.157436    1.821460    -12.783471    22.373371    -7.325431    -12.996965    -2.206048    -2.567703    -6.551436    -7.019466    -1.656077    11.173592    2.805189    -0.508032    -11.216986    -6.758750    -0.407826    2.025731    0.450445    -1.967747    -1.575020    4.706649    3.499904    2.034307    1.420661    -6.025853    -7.063621    -11.869710    -1.068255    0.034271    1.155342    
-8.458255    82.470467    105.035713    -1.930656    -7.017006    -176.736786    -1.980421    -13.185760    0.708028    -0.257688    10.067067    0.959664    1.389067    3.124380    -1.714611    5.347839    -8.575307    -0.798573    -2.372653    19.978365    -3.098716    -37.468643    43.487103    -44.442791    -0.596120    0.334927    -21.684971    1.781710    0.225273    0.286591    9.456748    20.649443    -4.225943    31.262173    45.824699    45.347340    1.829659    -12.769438    22.869568    -6.994723    -13.010736    -2.005589    -2.558932    -6.546519    -7.029763    -1.662641    11.147647    2.838958    -0.505691    -11.218489    -6.782972    -0.399611    2.039654    0.441360    -1.957033    -1.584102    4.715991    3.493827    2.046197    1.486984    -6.032965    -7.079411    -11.952616    -1.060370    0.017014    1.146841    
-8.463650    82.469902    104.989372    -1.919822    -7.055388    -176.729919    -1.972474    -13.167768    0.711088    -0.253987    10.007133    0.961020    1.348256    3.103352    -1.726578    5.372666    -8.567718    -0.801380    -2.366306    19.942799    -3.090518    -37.464458    43.417953    -44.417782    -0.461725    0.655990    -21.974815    0.927726    0.569121    0.347640    9.441833    20.649378    -4.185907    30.997673    46.048908    45.544205    1.827959    -12.745639    23.360794    -6.669835    -13.010983    -1.814852    -2.548928    -6.539950    -7.037436    -1.669384    11.121443    2.869747    -0.503116    -11.220475    -6.806366    -0.391243    2.052636    0.432109    -1.945499    -1.591627    4.728334    3.487722    2.058191    1.556182    -6.040816    -7.094586    -12.041286    -1.052078    0.000249    1.137899    
-8.468711    82.469391    104.943672    -1.908604    -7.091625    -176.723328    -1.965343    -13.150489    0.714393    -0.247984    9.949653    0.962546    1.309628    3.083828    -1.738577    5.394485    -8.562466    -0.804926    -2.355898    19.905485    -3.086611    -37.437634    43.366745    -44.416679    -0.331559    0.951580    -22.257385    0.139016    0.886880    0.421672    9.425513    20.648046    -4.146011    30.736959    46.258648    45.744141    1.817783    -12.714350    23.834593    -6.356926    -12.999695    -1.638690    -2.537732    -6.531878    -7.041570    -1.676300    11.095833    2.895455    -0.499919    -11.223191    -6.827450    -0.382986    2.064436    0.422980    -1.933021    -1.597934    4.740565    3.481141    2.071004    1.626928    -6.049881    -7.109112    -12.131177    -1.043674    -0.015910    1.128835    
-8.473508    82.468903    104.898048    -1.896914    -7.126030    -176.717148    -1.958927    -13.133762    0.717862    -0.239487    9.893840    0.964155    1.272625    3.066116    -1.750387    5.413348    -8.559946    -0.808960    -2.341971    19.865988    -3.087113    -37.388493    43.333019    -44.438278    -0.206592    1.221889    -22.535219    -0.593558    1.178144    0.504728    9.408037    20.645247    -4.105356    30.478748    46.454620    45.947384    1.801076    -12.677840    24.295807    -6.050290    -12.979911    -1.474383    -2.525264    -6.522167    -7.041520    -1.683314    11.070800    2.914616    -0.496129    -11.226914    -6.845273    -0.374712    2.074718    0.413835    -1.919521    -1.603101    4.750712    3.474019    2.084861    1.699422    -6.057644    -7.123494    -12.220062    -1.035050    -0.031729    1.119531    
